<?xml version="1.0" standalone="no"?>
<!DOCTYPE svg PUBLIC "-//W3C//DTD SVG 1.1//EN" "http://www.w3.org/Graphics/SVG/1.1/DTD/svg11.dtd" >
<!--
2013-9-30: Created.
-->
<svg>
<metadata>
Created by iconfont
</metadata>
<defs>

<font id="iconfont" horiz-adv-x="1024" >
  <font-face
    font-family="iconfont"
    font-weight="500"
    font-stretch="normal"
    units-per-em="1024"
    ascent="896"
    descent="-128"
  />
    <missing-glyph />
    
    <glyph glyph-name="al-icon-cart" unicode="&#58882;" d="M443.424 0a42.272 42.272 0 0 0-28.8 12.352 40.96 40.96 0 0 0 0 57.088 41.6 41.6 0 0 0 57.44 0 40.96 40.96 0 0 0 0-57.088 42.272 42.272 0 0 0-28.64-12.352z m274.272 0a42.272 42.272 0 0 0-28.8 12.352 40.96 40.96 0 0 0 0 57.088 41.6 41.6 0 0 0 57.44 0 40.96 40.96 0 0 0 0-57.088 42.272 42.272 0 0 0-28.608-12.352zM155.424 681.6a26.784 26.784 0 0 0-19.712 7.68A26.432 26.432 0 0 0 128 708.736a26.432 26.432 0 0 0 7.712 19.584 26.784 26.784 0 0 0 19.712 7.68h137.152a26.848 26.848 0 0 0 17.568-5.952 25.6 25.6 0 0 0 8.992-16.192l29.152-141.408h520.288a25.6 25.6 0 0 0 20.992-10.208 26.784 26.784 0 0 0 5.568-23.008L812.8 157.6a25.024 25.024 0 0 0-8.992-15.328 26.848 26.848 0 0 0-17.568-5.952h-384a26.848 26.848 0 0 0-17.568 5.952 25.6 25.6 0 0 0-8.992 16.192L270.272 681.6z m269.152-490.784h339.424l70.4 327.104h-475.84z"  horiz-adv-x="1024" />

    
    <glyph glyph-name="al-icon-caret-bottom" unicode="&#58883;" d="M148.224 581.76l379.808-491.488L907.808 581.76z"  horiz-adv-x="1024" />

    
    <glyph glyph-name="al-icon-close-round" unicode="&#58884;" d="M669.408 540.8a36.352 36.352 0 0 1-51.2 0l-106.56-106.56-102.048 102.176a35.296 35.296 0 0 1-49.984-49.856l102.208-102.176-106.624-106.464a36.256 36.256 0 0 1 51.2-51.2l106.432 106.4 103.072-102.72a35.2 35.2 0 0 1 49.696 49.76l-102.752 102.784 106.432 106.432a36.352 36.352 0 0 1 0 51.2M512 0a384 384 0 1 0 384 384 384 384 0 0 0-384-384"  horiz-adv-x="1024" />

    
    <glyph glyph-name="al-icon-ellipsis" unicode="&#58885;" d="M256 320a64 64 0 1 0 64 64 64 64 0 0 0-64-64z m256 0a64 64 0 1 0 64 64 64 64 0 0 0-64-64z m256 0a64 64 0 1 0 64 64 64 64 0 0 0-64-64z"  horiz-adv-x="1024" />

    
    <glyph glyph-name="al-icon-delete" unicode="&#58886;" d="M235.424 585.152H185.152A24.192 24.192 0 0 0 160 610.272a24.192 24.192 0 0 0 25.152 25.152h201.12V710.848A24.192 24.192 0 0 0 411.424 736h201.152a24.192 24.192 0 0 0 25.152-25.152v-75.424h201.152a24.192 24.192 0 0 0 25.12-25.152 24.192 24.192 0 0 0-25.152-25.152h-50.272v-528a24.192 24.192 0 0 0-25.152-25.152H260.576a24.192 24.192 0 0 0-25.152 25.152z m352 50.272V685.728h-150.848v-50.304zM285.728 82.272h452.544V585.152H285.728z m150.848 100.576a24.192 24.192 0 0 0-25.152 25.152v251.424a25.152 25.152 0 1 0 50.272 0V208a24.192 24.192 0 0 0-25.152-25.152z m150.848 0a24.192 24.192 0 0 0-25.152 25.152v251.424a25.152 25.152 0 1 0 50.272 0V208a24.192 24.192 0 0 0-25.152-25.152z"  horiz-adv-x="1024" />

    
    <glyph glyph-name="al-icon-close-round-off" unicode="&#58887;" d="M470.208 384l-84.48 83.584a30.976 30.976 0 0 0-8.352 21.344 30.112 30.112 0 0 0 29.728 29.728 30.976 30.976 0 0 0 21.344-8.352L512 425.792l83.584 84.512a30.208 30.208 0 0 0 42.72-42.72L553.792 384l84.512-83.584a30.208 30.208 0 0 0-42.72-42.72L512 342.208l-83.584-84.512a30.976 30.976 0 0 0-21.344-8.352 30.112 30.112 0 0 0-29.728 29.728 30.976 30.976 0 0 0 8.352 21.344zM512 27.424a356.672 356.672 0 1 1-252.096 104.48A355.2 355.2 0 0 1 512 27.424zM512-32a416.896 416.896 0 1 0 293.888 122.112A415.072 415.072 0 0 0 512-32z"  horiz-adv-x="1024" />

    
    <glyph glyph-name="al-icon-edit" unicode="&#58888;" d="M804.384 535.744a27.424 27.424 0 0 1-27.616-27.68v-392.48a28.8 28.8 0 0 0-28.16-28.224H275.936a28.8 28.8 0 0 0-28.16 28.224V587.84a27.04 27.04 0 0 0 28.16 28.224h327.04a26.528 26.528 0 0 1 26.528 27.68 28.352 28.352 0 0 1-28.16 28.256H261.856A69.536 69.536 0 0 1 192 601.44v-499.424A69.76 69.76 0 0 1 261.856 32H760A71.136 71.136 0 0 1 832 101.472V506.976a28.032 28.032 0 0 1-27.616 28.768zM384 287.104a30.752 30.752 0 0 1 8.96-22.144 32 32 0 0 1 22.08-8.96 29.344 29.344 0 0 1 23.872 11.968L823.04 650.752a30.752 30.752 0 0 1 8.96 22.144 30.72 30.72 0 0 1-52.48 22.144L392.96 308.64a32.576 32.576 0 0 1-8.96-21.536z"  horiz-adv-x="1024" />

    
    <glyph glyph-name="al-icon-like" unicode="&#58889;" d="M512 0a26.688 26.688 0 0 0-19.424 8.32L192 318.08a228.16 228.16 0 0 0-64 160 228.16 228.16 0 0 0 64 160 215.488 215.488 0 0 0 310.4 0l9.6-9.856 9.6 9.856a215.488 215.488 0 0 0 310.4 0 228.16 228.16 0 0 0 64-160 228.16 228.16 0 0 0-64-160l-300.48-309.76A26.688 26.688 0 0 0 512 0zM347.296 647.52a161.472 161.472 0 0 1-116.352-49.568 170.784 170.784 0 0 1-48-119.904 171.104 171.104 0 0 1 48-119.904L512 68.448l281.152 289.696a170.784 170.784 0 0 1 48 119.904 171.104 171.104 0 0 1-48 119.904 161.216 161.216 0 0 1-232.672 0l-28.8-29.888a26.848 26.848 0 0 0-38.848 0l-28.8 29.888a162.368 162.368 0 0 1-116.736 49.568z"  horiz-adv-x="1024" />

    
    <glyph glyph-name="al-icon-monitor" unicode="&#58890;" d="M539.424 169.856v-113.216H704a26.272 26.272 0 0 0 19.712-7.968 30.688 30.688 0 0 0 0-40.704A26.272 26.272 0 0 0 704 0H320a26.272 26.272 0 0 0-19.712 7.968 30.688 30.688 0 0 0 0 40.704 26.272 26.272 0 0 0 19.712 7.936h164.576v113.248H237.728A106.688 106.688 0 0 0 160 203.008a113.664 113.664 0 0 0-32 80V622.784a113.664 113.664 0 0 0 32 80A106.688 106.688 0 0 0 237.728 736h548.544A106.688 106.688 0 0 0 864 702.816a113.664 113.664 0 0 0 32-80v-339.744a113.664 113.664 0 0 0-32-80 106.688 106.688 0 0 0-77.568-33.184zM237.728 679.392a54.56 54.56 0 0 1-38.56-16.8 58.08 58.08 0 0 1-16.288-39.808v-339.712a58.08 58.08 0 0 1 16.256-39.872 54.56 54.56 0 0 1 38.56-16.8h548.576a54.56 54.56 0 0 1 38.56 16.8 58.08 58.08 0 0 1 16.288 39.808V622.784a58.08 58.08 0 0 1-16.288 39.808 54.56 54.56 0 0 1-38.56 16.8z"  horiz-adv-x="1024" />

    
    <glyph glyph-name="al-icon-close" unicode="&#58891;" d="M750.944 631.456l-223.264-223.264-223.264 223.264a29.024 29.024 0 0 1-19.936 7.968 26.752 26.752 0 0 1-19.488-8.416 26.752 26.752 0 0 1-8.416-19.488 29.024 29.024 0 0 1 7.968-19.936l223.264-223.264-223.264-223.264a27.168 27.168 0 0 1-7.52-27.456 25.6 25.6 0 0 1 19.488-19.936 28.448 28.448 0 0 1 27.904 7.52l223.264 223.264 223.264-223.264a29.024 29.024 0 0 1 19.936-7.968 28.8 28.8 0 0 1 27.904 27.904 29.024 29.024 0 0 1-7.968 19.936l-223.264 223.264 223.264 223.264a27.168 27.168 0 0 1 7.52 27.456 25.6 25.6 0 0 1-19.936 19.936 27.168 27.168 0 0 1-27.456-7.52z"  horiz-adv-x="1024" />

    
    <glyph glyph-name="al-icon-forward" unicode="&#58892;" d="M864 677.056v-170.432a26.016 26.016 0 1 0-52 0V645.312h-140.384a27.168 27.168 0 0 0-23.552 7.968 28.8 28.8 0 0 0-7.776 24.128c0 21.312 10.368 26.624 25.984 26.624h166.4c20.96-0.032 31.328-10.816 31.328-26.976zM815.168 696.32a25.408 25.408 0 0 0 36.416 0 26.88 26.88 0 0 0 5.184-40.992l-332.8-327.904a26.016 26.016 0 0 0-36.416 0 25.12 25.12 0 0 0 0 35.872c-5.152 5.12 327.616 333.024 327.616 333.024zM530.432 704a22.912 22.912 0 0 0 24.192-24.32 27.2 27.2 0 0 0-24.192-29.216 285.664 285.664 0 0 1-285.216-282.208 289.888 289.888 0 0 1 285.216-287.04 289.888 289.888 0 0 1 285.216 287.04 24.192 24.192 0 0 0 48.352 0A336 336 0 1 0 530.432 704z"  horiz-adv-x="1024" />

    
    <glyph glyph-name="al-icon-chat-dot-round" unicode="&#58893;" d="M223.136 105.248l115.712 39.232 20.576-9.6A325.216 325.216 0 0 1 512 98.272a340.544 340.544 0 0 1 232.704 92.8 296.608 296.608 0 0 1 96.416 214.08 296.608 296.608 0 0 1-96.416 214.08 337.984 337.984 0 0 1-465.44 0 296.608 296.608 0 0 1-96.416-214.08 272.384 272.384 0 0 1 15.552-89.728 298.272 298.272 0 0 1 45.44-83.712l18.848-25.28z m-39.424-71.488a24.768 24.768 0 0 0-27.872 7.424 26.816 26.816 0 0 0-5.44 29.216l49.6 127.296a380.224 380.224 0 0 0-53.152 98.976A320.224 320.224 0 0 0 128 405.248 356.864 356.864 0 0 0 237.728 656a391.712 391.712 0 0 0 548.576 0A356.864 356.864 0 0 0 896 405.248a356.864 356.864 0 0 0-109.728-250.72A388.256 388.256 0 0 0 512 42.464a392.64 392.64 0 0 0-177.44 41.856zM512 360.768a43.072 43.072 0 0 0-21.856 5.664 41.856 41.856 0 0 0-16 16.576 44.192 44.192 0 0 0 0 44.48 41.856 41.856 0 0 0 16 16.576 43.072 43.072 0 0 0 21.856 5.632 42.048 42.048 0 0 0 31.296-12.8 46.976 46.976 0 0 0 0-63.648 42.048 42.048 0 0 0-31.296-12.48z m164.576 0a43.072 43.072 0 0 0-21.856 5.664 41.856 41.856 0 0 0-16 16.576 44.192 44.192 0 0 0 0 44.48 41.856 41.856 0 0 0 16 16.576 43.072 43.072 0 0 0 21.856 5.664 42.048 42.048 0 0 0 31.296-12.8 46.976 46.976 0 0 0 0-63.648 42.048 42.048 0 0 0-31.296-12.512z m-329.152 0a43.072 43.072 0 0 0-21.856 5.664 41.856 41.856 0 0 0-16 16.576 44.192 44.192 0 0 0 0 44.48 41.856 41.856 0 0 0 16 16.576 43.072 43.072 0 0 0 21.856 5.664 42.048 42.048 0 0 0 31.296-12.8 46.976 46.976 0 0 0 0-63.648 42.048 42.048 0 0 0-31.296-12.512z"  horiz-adv-x="1024" />

    
    <glyph glyph-name="al-icon-data-analysis" unicode="&#58894;" d="M644.608 177.216L740.8 0h-64l-96.32 177.216h-136.96L347.328 0h-64l96.192 177.216H206.944a26.144 26.144 0 0 0-19.936 8.32 29.792 29.792 0 0 0-7.808 21.216V708.928H123.744a26.144 26.144 0 0 0-19.936 8.32A29.792 29.792 0 0 0 96 738.464a29.792 29.792 0 0 0 7.808 21.216 26.144 26.144 0 0 0 19.936 8.32h776.512a26.144 26.144 0 0 0 19.936-8.32 29.792 29.792 0 0 0 7.808-21.216 29.792 29.792 0 0 0-7.808-21.216 26.144 26.144 0 0 0-19.936-8.32H844.8v-502.144a29.792 29.792 0 0 0-7.808-21.216 26.144 26.144 0 0 0-19.936-8.32z m144.736 531.712H234.656v-472.608h554.688z m-416-236.32a26.144 26.144 0 0 0 19.936-8.32 29.792 29.792 0 0 0 7.808-21.216V384a29.792 29.792 0 0 0-7.808-21.216 28.064 28.064 0 0 0-39.872 0A29.792 29.792 0 0 0 345.6 384v59.072a29.792 29.792 0 0 0 7.808 21.216 26.144 26.144 0 0 0 19.936 8.32zM512 531.68a26.144 26.144 0 0 0 19.936-8.32 29.792 29.792 0 0 0 7.808-21.216V384a29.792 29.792 0 0 0-7.808-21.216 28.064 28.064 0 0 0-39.872 0 29.792 29.792 0 0 0-7.808 21.216v118.144a29.792 29.792 0 0 0 7.808 21.216 26.144 26.144 0 0 0 19.936 8.32z m138.656 59.072a26.144 26.144 0 0 0 19.936-8.32 29.792 29.792 0 0 0 7.808-21.216V384a29.792 29.792 0 0 0-7.808-21.216 28.064 28.064 0 0 0-39.872 0 29.792 29.792 0 0 0-7.776 21.216v177.216a29.792 29.792 0 0 0 7.776 21.184 26.144 26.144 0 0 0 19.936 8.384z"  horiz-adv-x="1024" />

    
    <glyph glyph-name="al-icon-expand" unicode="&#58895;" d="M194.72 691.2l44.096 44.768 308.576-313.12-44.064-44.768zM194.72 374.784l44 44.864 308.576-313.12-44.064-44.768zM767.616 735.936l44.096-44.768-308.608-313.12-44.064 44.768zM767.648 419.52l44.032-44.736-308.576-313.12-44.096 44.768z"  horiz-adv-x="1024" />

    
    <glyph glyph-name="al-icon-refresh" unicode="&#58896;" d="M750.336 126.048A352.416 352.416 0 0 0 217.28 192.8a348.16 348.16 0 0 0-57.28 192h58.656a291.904 291.904 0 0 1 50.88-165.472 288 288 0 0 1 136.128-106.976 291.744 291.744 0 0 1 322.656 74.976H643.2a28.576 28.576 0 0 0-21.088 8.224 29.76 29.76 0 0 0 0 41.152 32 32 0 0 0 21.088 9.152h136.576a31.488 31.488 0 0 0 29.344-29.248v-136.224a31.808 31.808 0 0 0-9.152-21.024 29.952 29.952 0 0 0-41.248 0 28.448 28.448 0 0 0-8.256 21.024zM295.68 582.272h85.12a28.576 28.576 0 0 0 21.088-8.224 29.76 29.76 0 0 0 0-41.152 32 32 0 0 0-21.088-9.152H244.32a31.488 31.488 0 0 0-29.344 29.248V689.248a31.808 31.808 0 0 0 9.184 21.024 28.032 28.032 0 0 0 20.64 8.256 28.032 28.032 0 0 0 20.64-8.224 28.448 28.448 0 0 0 8.256-21.024v-45.728a351.744 351.744 0 0 0 181.024 87.776 357.76 357.76 0 0 0 199.36-24.672A350.784 350.784 0 0 0 864 384.8h-58.656a291.904 291.904 0 0 1-50.88 165.472 288 288 0 0 1-136.128 106.976A291.744 291.744 0 0 1 295.68 582.272z"  horiz-adv-x="1024" />

    
    <glyph glyph-name="al-icon-plus" unicode="&#58897;" d="M482.464 413.536V738.464a29.536 29.536 0 1 0 59.072 0v-324.928h324.928a29.536 29.536 0 1 0 0-59.072H541.536v-324.928a29.536 29.536 0 1 0-59.072 0V354.464H157.536a29.536 29.536 0 1 0 0 59.072z"  horiz-adv-x="1024" />

    
    <glyph glyph-name="al-icon-problem" unicode="&#58898;" d="M604.544 401.76c-1.568-28.384-10.4-50.72-53.888-94.848-22.048-22.112-35.936-38.752-37.504-53.248a22.176 22.176 0 0 0-22.048-19.84h-2.24a22.144 22.144 0 0 0-19.84 23.936v0.288a144.672 144.672 0 0 0 50.112 80.352c39.68 39.68 40.32 52.32 40.96 65.536A57.6 57.6 0 0 1 544 446.592a69.12 69.12 0 0 1-49.792 21.12 66.304 66.304 0 0 1-66.176-65.824 21.856 21.856 0 0 0-21.632-22.08H406.016A21.856 21.856 0 0 0 384 401.408v0.288A110.24 110.24 0 0 0 494.24 512a113.632 113.632 0 0 0 82.24-34.976 100.192 100.192 0 0 0 28.032-75.296zM490.112 167.264m-32 0a32 32 0 1 1 64 0 32 32 0 1 1-64 0ZM508.448-32A349.024 349.024 0 0 0 160 316.608a362.112 362.112 0 0 0 97.568 241.696 572.288 572.288 0 0 0 65.056 213.952L336.48 800l23.104-23.104c36.96-36.992 74.336-83.68 97.568-111.552a410.976 410.976 0 0 0 106.848 0 1047.008 1047.008 0 0 0 97.728 111.552L684.8 800l13.856-27.744a683.168 683.168 0 0 0 65.088-209.056 349.504 349.504 0 0 0-4.608-488.064A336.8 336.8 0 0 0 508.448-32zM345.824 720.992A548.704 548.704 0 0 1 304 549.024v-9.248l-9.248-4.608a317.728 317.728 0 0 1-88.288-218.528 301.44 301.44 0 0 1 301.952-302.112 306.336 306.336 0 0 1 213.728 88.32 305.952 305.952 0 0 1 0 427.616l-4.608 4.608v9.216a555.904 555.904 0 0 1-46.528 172.032 649.12 649.12 0 0 1-78.944-92.8l-9.248-9.248h-13.856a245.344 245.344 0 0 1-116.16 0h-13.856l-9.248 9.248a1204.16 1204.16 0 0 1-83.872 97.472z"  horiz-adv-x="1024" />

    
    <glyph glyph-name="al-icon-star-off" unicode="&#58899;" d="M512 160.416l196.736-103.552a7.264 7.264 0 0 1 6.048 0.864 4.384 4.384 0 0 1 1.728 5.184l-37.12 219.168 158.784 155.36a5.408 5.408 0 0 1-2.592 9.6l-220.032 32-98.368 199.136a5.6 5.6 0 0 1-10.368 0l-98.368-199.328-220.032-32a5.408 5.408 0 0 1-2.592-9.6l158.784-155.328-37.984-219.008a5.792 5.792 0 0 1 2.592-5.184 7.264 7.264 0 0 1 6.048-0.864z m-170.848-151.872A60.8 60.8 0 0 0 256 39.2a62.272 62.272 0 0 0-3.872 33.216l32.8 190.72-137.952 134.592a56.032 56.032 0 0 0-16.832 28.8 61.088 61.088 0 0 0 1.728 33.76 59.744 59.744 0 0 0 48.768 40.992l191.584 27.616 85.44 173.44A55.968 55.968 0 0 0 480 727.36a63.392 63.392 0 0 0 64 0 55.968 55.968 0 0 0 22.4-25.024l85.44-173.44 191.584-27.616a62.752 62.752 0 0 0 30.624-13.376 55.648 55.648 0 0 0 18.56-27.616 63.776 63.776 0 0 0 1.28-33.664 56.032 56.032 0 0 0-16.832-28.8l-138.08-134.624 32.8-190.72a62.272 62.272 0 0 0-3.776-33.28 61.888 61.888 0 0 0-51.776-37.984 64.928 64.928 0 0 0-33.216 6.4L512 98.304z"  horiz-adv-x="1024" />

    
    <glyph glyph-name="al-icon-view" unicode="&#58900;" d="M512 672q211.744-19.008 328.992-152T960 368q-1.76-19.008-119.008-152T512 64q-211.744 19.008-328.992 152T64 368q1.76 19.008 119.008 152T512 672z m0-55.264a394.752 394.752 0 0 1-247.616-98.88A723.616 723.616 0 0 1 129.632 368a723.616 723.616 0 0 1 134.752-149.856A394.752 394.752 0 0 1 512 119.264a394.752 394.752 0 0 1 247.616 98.88 723.616 723.616 0 0 1 134.752 149.856 723.616 723.616 0 0 1-134.752 149.856A394.752 394.752 0 0 1 512 616.736z m0-55.264a195.616 195.616 0 0 0 138.688-56.576 192 192 0 0 0 0-273.76 198.4 198.4 0 0 0-277.376 0 192 192 0 0 0 0 273.76A195.616 195.616 0 0 0 512 561.44z m0-55.264a141.216 141.216 0 0 1-98.88-40.608 136.352 136.352 0 0 1 0-195.2 140.8 140.8 0 0 1 197.76 0 136.352 136.352 0 0 1 0 195.2A141.216 141.216 0 0 1 512 506.176z"  horiz-adv-x="1024" />

    
    <glyph glyph-name="al-icon-sort" unicode="&#58901;" d="M499.2 768.032l307.2-307.2H192zM192 307.2h614.4L499.2 0z"  horiz-adv-x="1024" />

    
    <glyph glyph-name="al-icon-video-play" unicode="&#58902;" d="M512 768a384.832 384.832 0 1 0-271.296-112.704A383.168 383.168 0 0 0 512 768z m0-713.152a329.216 329.216 0 1 1-232.704 96.416A327.776 327.776 0 0 1 512 54.848z m-41.152 212.576L646.56 384l-175.712 116.576z m9.44 293.152l213.44-142.272a41.6 41.6 0 0 0 0-68.576l-213.44-142.272a41.024 41.024 0 0 0-21.44-7.296 38.88 38.88 0 0 0-20.992 5.152 44.384 44.384 0 0 0-16 15.008 39.072 39.072 0 0 0-5.856 21.408v284.544a39.072 39.072 0 0 0 6.016 21.44 44.384 44.384 0 0 0 16 15.008 38.88 38.88 0 0 0 20.992 5.152 41.024 41.024 0 0 0 21.28-7.296z"  horiz-adv-x="1024" />

    
    <glyph glyph-name="al-icon-setting" unicode="&#58903;" d="M628.896 768l198.208-113.28-38.4-66.368A357.408 357.408 0 0 0 851.2 481.28H928v-226.56h-76.8a340.48 340.48 0 0 0-62.496-107.072l38.4-66.368L628.896-32l-38.4 66.368a342.4 342.4 0 0 0-124.992 0L427.104-32l-198.208 113.28 38.4 66.368a336.832 336.832 0 0 0-36.16 50.88A358.4 358.4 0 0 0 204.8 254.72H128v226.56h76.8a340.48 340.48 0 0 0 62.496 107.072l-38.4 66.368L427.104 768l38.4-66.368a342.4 342.4 0 0 0 124.992 0z m21.44-76.992l-10.72-17.696-19.648-34.528-40.192 7.072a277.92 277.92 0 0 1-103.584 0l-40.192-7.072-30.336 52.224-98.208-56.64 29.472-52.224-25.888-30.08a286.336 286.336 0 0 1-51.84-89.376l-13.344-38.048h-60.8v-113.28h59.904l14.24-38.048a261.824 261.824 0 0 1 21.44-46.912 312.992 312.992 0 0 1 30.368-42.464l25.888-30.08-29.472-52.224 98.208-56.64 30.368 52.224 40.192-7.072a277.92 277.92 0 0 1 103.584 0l40.192 7.072 30.368-52.224 98.208 56.64-29.472 52.224 25.888 30.08a300.32 300.32 0 0 1 51.84 89.376l13.408 38.048h60.8v113.28h-59.968l-14.24 38.048a242.112 242.112 0 0 1-21.44 46.464 330.048 330.048 0 0 1-30.368 42.912l-25.888 30.08 29.472 52.224zM528 566.24a199.2 199.2 0 0 0 141.504-57.952 197.44 197.44 0 0 0 0-280.544 201.6 201.6 0 0 0-283.04 0 197.44 197.44 0 0 0 0 280.544 199.2 199.2 0 0 0 141.536 57.952z m0-56.64a143.776 143.776 0 0 1-100.896-41.6 140.128 140.128 0 0 1 0-200 143.168 143.168 0 0 1 201.792 0 140.128 140.128 0 0 1 0 200 143.776 143.776 0 0 1-100.896 41.6z"  horiz-adv-x="1024" />

    
    <glyph glyph-name="al-icon-problem1" unicode="&#58904;" d="M417.152 0S80 74.912 230.752 446.72c0 0 34.208-41.28 29.504-61.184a389.568 389.568 0 0 0 84.672 149.92C394.624 583.616 445.12 719.072 398.528 768a339.2 339.2 0 0 0 256.32-293.76s29.472 78.016 90.048 85.76a169.248 169.248 0 0 1 0-107.2s191.008-330.4-138.208-442.08c0 0 98.688 113.216-110.592 307.52a1061.92 1061.92 0 0 0-78.848-140.8S334.848 84.16 417.152 0z"  horiz-adv-x="1024" />

    
    <glyph glyph-name="al-icon-tickets" unicode="&#58905;" d="M248 713.152v-658.304h560V713.152zM220 768h616a27.552 27.552 0 0 0 20.128-7.712 26.4 26.4 0 0 0 7.872-19.712v-713.152a26.4 26.4 0 0 0-7.872-19.712 27.552 27.552 0 0 0-20.128-7.712H220a27.552 27.552 0 0 0-20.128 7.712 26.4 26.4 0 0 0-7.872 19.712V740.576a26.4 26.4 0 0 0 7.872 19.712A27.552 27.552 0 0 0 220 768zM352 384h352v-64H352z m0 160h160v-64h-160z m0-320h320v-64H352z"  horiz-adv-x="1024" />

    
    <glyph glyph-name="al-icon-rate" unicode="&#58906;" d="M768.48 192H768a31.264 31.264 0 0 1-15.776-4.096 30.784 30.784 0 0 1-16.32-27.616 32 32 0 0 1 31.68-32.288H768a32 32 0 0 1 0.416 64zM832.32 352H832a32 32 0 0 1-15.776-4.192 31.552 31.552 0 0 1-10.848-10.208l-4.896 9.792-0.48-27.008a32 32 0 0 1 9.056-22.72 29.792 29.792 0 0 1 2.752-2.464l1.248-2.528v1.472a31.584 31.584 0 0 1 18.592-6.144H832a32 32 0 0 1 0.416 64zM800.48 256H800a31.264 31.264 0 0 1-15.776-4.096A30.944 30.944 0 0 1 768 224a32 32 0 0 1 31.584-32H800a32 32 0 0 1 0.416 64zM811.68 387.904a26.176 26.176 0 1 1 52.32 0A352.224 352.224 0 0 1 514.016 736a349.6 349.6 0 0 1-306.464-174.848 353.728 353.728 0 0 1 0-354.336A349.6 349.6 0 0 1 514.016 32h1.824a331.392 331.392 0 0 1 184.96 56.256 25.952 25.952 0 1 1-27.488 44 291.2 291.2 0 0 0-158.112-46.688 6.848 6.848 0 0 1-1.376 0 297.92 297.92 0 0 0-274.816 183.744A300.8 300.8 0 0 0 301.216 595.2a295.008 295.008 0 0 0 209.92 89.6h2.88a299.2 299.2 0 0 0 297.6-296.96zM507.072 640a27.008 27.008 0 0 1-27.072-26.848v-215.136a24.8 24.8 0 0 1 9.184-20.352l169.92-146.528a26.88 26.88 0 0 1 17.728-7.104h0.288a27.008 27.008 0 0 1 25.216 17.568 26.688 26.688 0 0 1-7.776 29.6l-160.448 138.88V613.248A27.008 27.008 0 0 1 507.072 640z"  horiz-adv-x="1024" />

    
    <glyph glyph-name="al-icon-tick" unicode="&#58907;" d="M746.368 604.8a1307.328 1307.328 0 0 1-299.808-270.464l-116.416 95.264-51.744-43.2 201.6-213.952a1297.312 1297.312 0 0 0 278.656 402.56zM512 0a384 384 0 1 0 384 384 384 384 0 0 0-384-384z"  horiz-adv-x="1024" />

    
    <glyph glyph-name="al-icon-sprogram" unicode="&#58908;" d="M410.912 189.088h-1.824a123.68 123.68 0 0 0-86.4 36 115.68 115.68 0 0 0 2.56 167.744 124.416 124.416 0 0 0 87.552 33.536 25.44 25.44 0 1 0-0.704-50.816 70.976 70.976 0 0 1-49.92-19.2 66.176 66.176 0 0 1-1.504-96 72 72 0 0 1 99.2-1.44 66.432 66.432 0 0 1 21.312 47.52v182.976a122.912 122.912 0 0 0 245.664 0 120.896 120.896 0 0 0-122.816-118.592 25.44 25.44 0 1 0 0 50.816 67.808 67.808 0 1 1-70.176 67.776v-183.328a115.52 115.52 0 0 0-37.28-83.2 124.288 124.288 0 0 0-85.632-33.632zM512 716.576a331.264 331.264 0 0 0 235.104-97.472 334.368 334.368 0 0 0 71.328-105.6 332.032 332.032 0 0 0-71.328-364.544 334.368 334.368 0 0 0-105.6-71.328A332.8 332.8 0 1 0 512 716.576M512 768a384 384 0 1 1 384-384A384 384 0 0 1 512 768z"  horiz-adv-x="1024" />

    
    <glyph glyph-name="al-icon-search" unicode="&#58909;" d="M777.312 158.56l110.72-110.72a29.024 29.024 0 0 0 7.968-19.936 28.8 28.8 0 0 0-27.904-27.904 29.024 29.024 0 0 0-19.936 7.968l-110.72 110.72a368.704 368.704 0 0 0-608.544 287.008A368.544 368.544 0 0 0 748.064 668.8a368.64 368.64 0 0 0 29.216-510.24z m-279.904-71.744a311.52 311.52 0 1 1-220.576 91.232 311.552 311.552 0 0 1 220.544-91.232z"  horiz-adv-x="1024" />

    
    <glyph glyph-name="al-icon-putaway" unicode="&#58910;" d="M837.12 78.912l-45.888-46.72L470.464 359.04l45.824 46.72zM837.12 409.056l-45.856-46.72L470.464 689.216l45.856 46.688zM241.28 32.224l-45.856 46.72L516.256 405.76l45.856-46.688zM241.28 362.4l-45.824 46.72L516.256 735.904l45.856-46.72z"  horiz-adv-x="1024" />

    
    <glyph glyph-name="al-icon-bell" unicode="&#58911;" d="M0 896h1024v-1024H0zM457.152 707.2v5.888a54.848 54.848 0 0 0 109.728 0V707.2a264.896 264.896 0 0 0 139.296-74.464 272.864 272.864 0 0 0 80-194.368v-274.592h82.272a24.256 24.256 0 0 0 27.424-27.456 24.256 24.256 0 0 0-27.424-27.456H155.424A24.256 24.256 0 0 0 128 136.448a24.256 24.256 0 0 0 27.424 27.456h82.304V438.4a272.864 272.864 0 0 0 80 194.368A264.896 264.896 0 0 0 457.152 707.2zM292.576 163.904h438.848V438.4a219.424 219.424 0 1 1-438.848 0z m164.576-109.824h109.728a55.488 55.488 0 0 0-16.288-38.624 55.872 55.872 0 0 0-77.152 0 55.488 55.488 0 0 0-16.288 38.592z"  horiz-adv-x="1024" />

    
    <glyph glyph-name="icon-all" unicode="&#58912;" d="M0 896h320a128 128 0 0 0 128-128v-192a128 128 0 0 0-128-128H128A128 128 0 0 0 0 576V896z m704 0H1024v-320a128 128 0 0 0-128-128H704a128 128 0 0 0-128 128V768A128 128 0 0 0 704 896zM128 320h192a128 128 0 0 0 128-128v-192A128 128 0 0 0 320-128H0V192a128 128 0 0 0 128 128z m576 0h192A128 128 0 0 0 1024 192V-128H704a128 128 0 0 0-128 128V192a128 128 0 0 0 128 128z m0 0"  horiz-adv-x="1024" />

    


  </font>
</defs>
</svg>
